<svg width="731" height="364" viewBox="0 0 731 364" fill="none" xmlns="http://www.w3.org/2000/svg">
<path d="M506.539 364C486.436 364 467.153 356.036 452.909 341.851L428.355 317.397C411.508 300.62 388.701 291.2 364.926 291.2C341.886 291.2 319.784 300.328 303.459 316.586L278.091 341.85C263.847 356.036 244.564 364 224.461 364H182.75C163.363 364 144.769 356.33 131.06 342.677C117.352 329.025 109.65 310.508 109.65 291.2V72.8C109.65 53.4922 117.352 34.9753 131.06 21.3226C144.769 7.66998 163.363 0 182.75 0L548.25 0C567.637 0 586.231 7.66998 599.939 21.3226C613.648 34.9753 621.35 53.4922 621.35 72.8V291.2C621.35 310.508 613.648 329.025 599.939 342.677C586.231 356.33 567.637 364 548.25 364H506.539ZM731 254.8C731 264.454 727.149 273.712 720.295 280.539C713.44 287.365 704.144 291.2 694.45 291.2C684.756 291.2 675.46 287.365 668.605 280.539C661.751 273.712 657.9 264.454 657.9 254.8V109.2C657.9 99.5461 661.751 90.2877 668.605 83.4613C675.46 76.635 684.756 72.8 694.45 72.8C704.144 72.8 713.44 76.635 720.295 83.4613C727.149 90.2877 731 99.5461 731 109.2V254.8ZM73.1 254.8C73.1 264.454 69.2492 273.712 62.3948 280.539C55.5403 287.365 46.2437 291.2 36.55 291.2C26.8563 291.2 17.5597 287.365 10.7052 280.539C3.85079 273.712 0 264.454 0 254.8L0 109.2C0 99.5461 3.85079 90.2877 10.7052 83.4613C17.5597 76.635 26.8563 72.8 36.55 72.8C46.2437 72.8 55.5403 76.635 62.3948 83.4613C69.2492 90.2877 73.1 99.5461 73.1 109.2V254.8Z" fill="url(#paint0_linear_1_20)"/>
<defs>
<linearGradient id="paint0_linear_1_20" x1="365.5" y1="0" x2="365.5" y2="364" gradientUnits="userSpaceOnUse">
<stop stop-color="#ABFFA9"/>
<stop offset="1" stop-color="#5F909C"/>
</linearGradient>
</defs>
</svg>
